<?xml version="1.0" encoding="UTF-8" standalone="no"?>
<!DOCTYPE svg PUBLIC "-//W3C//DTD SVG 1.1//EN"
 "http://www.w3.org/Graphics/SVG/1.1/DTD/svg11.dtd">
<!-- Generated by graphviz version 2.40.1 (20161225.0304)
 -->
<!-- Title: %3 Pages: 1 -->
<svg width="2396pt" height="106pt"
 viewBox="0.00 0.00 2396.35 106.00" xmlns="http://www.w3.org/2000/svg" xmlns:xlink="http://www.w3.org/1999/xlink">
<g id="graph0" class="graph" transform="scale(1 1) rotate(0) translate(4 102)">
<title>%3</title>
<polygon fill="#ffffff" stroke="transparent" points="-4,4 -4,-102 2392.3506,-102 2392.3506,4 -4,4"/>
<!-- 1 -->
<g id="node1" class="node">
<title>1</title>
<ellipse fill="none" stroke="#000000" cx="27" cy="-45" rx="27" ry="18"/>
<text text-anchor="middle" x="27" y="-41.3" font-family="Times,serif" font-size="14.00" fill="#000000">start</text>
</g>
<!-- 3 -->
<g id="node3" class="node">
<title>3</title>
<ellipse fill="none" stroke="#000000" cx="165.4971" cy="-45" rx="32.4942" ry="18"/>
<text text-anchor="middle" x="165.4971" y="-41.3" font-family="Times,serif" font-size="14.00" fill="#000000">mais1</text>
</g>
<!-- 1&#45;&gt;3 -->
<g id="edge1" class="edge">
<title>1&#45;&gt;3</title>
<path fill="none" stroke="#000000" d="M54.0324,-45C73.5365,-45 100.2657,-45 122.6601,-45"/>
<polygon fill="#000000" stroke="#000000" points="122.928,-48.5001 132.9279,-45 122.9279,-41.5001 122.928,-48.5001"/>
<text text-anchor="middle" x="93.5" y="-48.8" font-family="Times,serif" font-size="14.00" fill="#000000">A, B, C</text>
</g>
<!-- 2 -->
<g id="node2" class="node">
<title>2</title>
<ellipse fill="none" stroke="#000000" cx="2361.3506" cy="-45" rx="27" ry="18"/>
<text text-anchor="middle" x="2361.3506" y="-41.3" font-family="Times,serif" font-size="14.00" fill="#000000">end</text>
</g>
<!-- 4 -->
<g id="node4" class="node">
<title>4</title>
<ellipse fill="none" stroke="#000000" cx="307.5415" cy="-45" rx="30.5947" ry="18"/>
<text text-anchor="middle" x="307.5415" y="-41.3" font-family="Times,serif" font-size="14.00" fill="#000000">a3+le</text>
</g>
<!-- 3&#45;&gt;4 -->
<g id="edge2" class="edge">
<title>3&#45;&gt;4</title>
<path fill="none" stroke="#000000" d="M198.085,-45C218.3569,-45 244.6072,-45 266.3189,-45"/>
<polygon fill="#000000" stroke="#000000" points="266.5668,-48.5001 276.5667,-45 266.5667,-41.5001 266.5668,-48.5001"/>
<text text-anchor="middle" x="237.4942" y="-48.8" font-family="Times,serif" font-size="14.00" fill="#000000">A, B, C</text>
</g>
<!-- 5 -->
<g id="node5" class="node">
<title>5</title>
<ellipse fill="none" stroke="#000000" cx="447.6361" cy="-45" rx="30.5947" ry="18"/>
<text text-anchor="middle" x="447.6361" y="-41.3" font-family="Times,serif" font-size="14.00" fill="#000000">povre</text>
</g>
<!-- 4&#45;&gt;5 -->
<g id="edge3" class="edge">
<title>4&#45;&gt;5</title>
<path fill="none" stroke="#000000" d="M338.2859,-45C358.4505,-45 385.0399,-45 406.9499,-45"/>
<polygon fill="#000000" stroke="#000000" points="406.9635,-48.5001 416.9635,-45 406.9634,-41.5001 406.9635,-48.5001"/>
<text text-anchor="middle" x="377.5888" y="-48.8" font-family="Times,serif" font-size="14.00" fill="#000000">A, B, C</text>
</g>
<!-- 6 -->
<g id="node6" class="node">
<title>6</title>
<ellipse fill="none" stroke="#000000" cx="584.1834" cy="-45" rx="27" ry="18"/>
<text text-anchor="middle" x="584.1834" y="-41.3" font-family="Times,serif" font-size="14.00" fill="#000000">ome</text>
</g>
<!-- 5&#45;&gt;6 -->
<g id="edge4" class="edge">
<title>5&#45;&gt;6</title>
<path fill="none" stroke="#000000" d="M478.28,-45C498.5518,-45 525.2604,-45 546.7834,-45"/>
<polygon fill="#000000" stroke="#000000" points="546.8818,-48.5001 556.8817,-45 546.8817,-41.5001 546.8818,-48.5001"/>
<text text-anchor="middle" x="517.6834" y="-48.8" font-family="Times,serif" font-size="14.00" fill="#000000">A, B, C</text>
</g>
<!-- 7 -->
<g id="node7" class="node">
<title>7</title>
<ellipse fill="none" stroke="#000000" cx="723.3304" cy="-45" rx="33.2948" ry="18"/>
<text text-anchor="middle" x="723.3304" y="-41.3" font-family="Times,serif" font-size="14.00" fill="#000000">devoir</text>
</g>
<!-- 6&#45;&gt;7 -->
<g id="edge5" class="edge">
<title>6&#45;&gt;7</title>
<path fill="none" stroke="#000000" d="M611.3427,-45C630.8017,-45 657.419,-45 679.8214,-45"/>
<polygon fill="#000000" stroke="#000000" points="680.1028,-48.5001 690.1028,-45 680.1028,-41.5001 680.1028,-48.5001"/>
<text text-anchor="middle" x="650.6834" y="-48.8" font-family="Times,serif" font-size="14.00" fill="#000000">A, B, C</text>
</g>
<!-- 8 -->
<g id="node8" class="node">
<title>8</title>
<ellipse fill="none" stroke="#000000" cx="846.4775" cy="-80" rx="27" ry="18"/>
<text text-anchor="middle" x="846.4775" y="-76.3" font-family="Times,serif" font-size="14.00" fill="#000000">le</text>
</g>
<!-- 7&#45;&gt;8 -->
<g id="edge6" class="edge">
<title>7&#45;&gt;8</title>
<path fill="none" stroke="#000000" d="M752.8272,-53.3834C770.4784,-58.4001 793.0089,-64.8035 811.5473,-70.0724"/>
<polygon fill="#000000" stroke="#000000" points="810.8035,-73.4995 821.3794,-72.8668 812.7172,-66.7662 810.8035,-73.4995"/>
<text text-anchor="middle" x="787.9775" y="-69.8" font-family="Times,serif" font-size="14.00" fill="#000000">A, C</text>
</g>
<!-- 9 -->
<g id="node9" class="node">
<title>9</title>
<ellipse fill="none" stroke="#000000" cx="963.4775" cy="-45" rx="27" ry="18"/>
<text text-anchor="middle" x="963.4775" y="-41.3" font-family="Times,serif" font-size="14.00" fill="#000000">on</text>
</g>
<!-- 7&#45;&gt;9 -->
<g id="edge7" class="edge">
<title>7&#45;&gt;9</title>
<path fill="none" stroke="#000000" d="M756.2274,-42.0107C774.7828,-40.4738 798.4036,-38.7661 819.4775,-38 843.4617,-37.1281 849.4956,-37.0688 873.4775,-38 890.9486,-38.6784 910.2845,-40.0949 926.5418,-41.4774"/>
<polygon fill="#000000" stroke="#000000" points="926.462,-44.9838 936.7301,-42.3728 927.0749,-38.0107 926.462,-44.9838"/>
<text text-anchor="middle" x="846.4775" y="-41.8" font-family="Times,serif" font-size="14.00" fill="#000000">B</text>
</g>
<!-- 8&#45;&gt;9 -->
<g id="edge8" class="edge">
<title>8&#45;&gt;9</title>
<path fill="none" stroke="#000000" d="M871.2902,-72.5774C888.0431,-67.5658 910.3873,-60.8817 928.8819,-55.3491"/>
<polygon fill="#000000" stroke="#000000" points="930.1232,-58.6311 938.7006,-52.4119 928.117,-51.9248 930.1232,-58.6311"/>
<text text-anchor="middle" x="904.9775" y="-68.8" font-family="Times,serif" font-size="14.00" fill="#000000">A, C</text>
</g>
<!-- 10 -->
<g id="node10" class="node">
<title>10</title>
<ellipse fill="none" stroke="#000000" cx="1084.0248" cy="-80" rx="30.5947" ry="18"/>
<text text-anchor="middle" x="1084.0248" y="-76.3" font-family="Times,serif" font-size="14.00" fill="#000000">doner</text>
</g>
<!-- 9&#45;&gt;10 -->
<g id="edge9" class="edge">
<title>9&#45;&gt;10</title>
<path fill="none" stroke="#000000" d="M988.455,-52.252C1005.2906,-57.1401 1027.7988,-63.6752 1046.7427,-69.1754"/>
<polygon fill="#000000" stroke="#000000" points="1045.9783,-72.598 1056.5576,-72.0251 1047.9302,-65.8756 1045.9783,-72.598"/>
<text text-anchor="middle" x="1021.9775" y="-68.8" font-family="Times,serif" font-size="14.00" fill="#000000">A, C</text>
</g>
<!-- 11 -->
<g id="node11" class="node">
<title>11</title>
<ellipse fill="none" stroke="#000000" cx="1204.5721" cy="-45" rx="27" ry="18"/>
<text text-anchor="middle" x="1204.5721" y="-41.3" font-family="Times,serif" font-size="14.00" fill="#000000">tel</text>
</g>
<!-- 9&#45;&gt;11 -->
<g id="edge10" class="edge">
<title>9&#45;&gt;11</title>
<path fill="none" stroke="#000000" d="M990.225,-42.3728C1008.1101,-40.7509 1032.1794,-38.827 1053.4775,-38 1080.6102,-36.9464 1087.4394,-36.9464 1114.5721,-38 1132.0432,-38.6784 1151.3791,-40.0949 1167.6364,-41.4774"/>
<polygon fill="#000000" stroke="#000000" points="1167.5566,-44.9838 1177.8246,-42.3728 1168.1695,-38.0107 1167.5566,-44.9838"/>
<text text-anchor="middle" x="1084.0248" y="-41.8" font-family="Times,serif" font-size="14.00" fill="#000000">B</text>
</g>
<!-- 10&#45;&gt;11 -->
<g id="edge11" class="edge">
<title>10&#45;&gt;11</title>
<path fill="none" stroke="#000000" d="M1111.6808,-71.9703C1128.9239,-66.9639 1151.2636,-60.4777 1169.7137,-55.1209"/>
<polygon fill="#000000" stroke="#000000" points="1170.8791,-58.4271 1179.5065,-52.2776 1168.9272,-51.7047 1170.8791,-58.4271"/>
<text text-anchor="middle" x="1146.0721" y="-68.8" font-family="Times,serif" font-size="14.00" fill="#000000">A, C</text>
</g>
<!-- 12 -->
<g id="node12" class="node">
<title>12</title>
<ellipse fill="none" stroke="#000000" cx="1341.1194" cy="-45" rx="30.5947" ry="18"/>
<text text-anchor="middle" x="1341.1194" y="-41.3" font-family="Times,serif" font-size="14.00" fill="#000000">chose</text>
</g>
<!-- 11&#45;&gt;12 -->
<g id="edge12" class="edge">
<title>11&#45;&gt;12</title>
<path fill="none" stroke="#000000" d="M1231.8763,-45C1251.495,-45 1278.276,-45 1300.4111,-45"/>
<polygon fill="#000000" stroke="#000000" points="1300.5313,-48.5001 1310.5313,-45 1300.5313,-41.5001 1300.5313,-48.5001"/>
<text text-anchor="middle" x="1271.0721" y="-48.8" font-family="Times,serif" font-size="14.00" fill="#000000">A, B, C</text>
</g>
<!-- 13 -->
<g id="node13" class="node">
<title>13</title>
<ellipse fill="none" stroke="#000000" cx="1551.7612" cy="-45" rx="27" ry="18"/>
<text text-anchor="middle" x="1551.7612" y="-41.3" font-family="Times,serif" font-size="14.00" fill="#000000">qui</text>
</g>
<!-- 12&#45;&gt;13 -->
<g id="edge13" class="edge">
<title>12&#45;&gt;13</title>
<path fill="none" stroke="#000000" d="M1370.8506,-49.2167C1377.056,-49.9444 1383.5655,-50.5958 1389.6667,-51 1441.5968,-54.4403 1454.8722,-56.0117 1506.7612,-52 1509.6434,-51.7772 1512.6203,-51.4752 1515.6059,-51.1212"/>
<polygon fill="#000000" stroke="#000000" points="1516.2272,-54.5691 1525.6661,-49.757 1515.2865,-47.6326 1516.2272,-54.5691"/>
<text text-anchor="middle" x="1448.214" y="-57.8" font-family="Times,serif" font-size="14.00" fill="#000000">A, C</text>
</g>
<!-- 19 -->
<g id="node19" class="node">
<title>19</title>
<ellipse fill="none" stroke="#000000" cx="1448.214" cy="-18" rx="30.5947" ry="18"/>
<text text-anchor="middle" x="1448.214" y="-14.3" font-family="Times,serif" font-size="14.00" fill="#000000">doner</text>
</g>
<!-- 12&#45;&gt;19 -->
<g id="edge14" class="edge">
<title>12&#45;&gt;19</title>
<path fill="none" stroke="#000000" d="M1369.2572,-37.9061C1381.7022,-34.7685 1396.531,-31.03 1409.9592,-27.6445"/>
<polygon fill="#000000" stroke="#000000" points="1411.0513,-30.9788 1419.8922,-25.1403 1409.34,-24.1912 1411.0513,-30.9788"/>
<text text-anchor="middle" x="1394.6667" y="-35.8" font-family="Times,serif" font-size="14.00" fill="#000000">B</text>
</g>
<!-- 14 -->
<g id="node14" class="node">
<title>14</title>
<ellipse fill="none" stroke="#000000" cx="1689.6084" cy="-45" rx="31.6951" ry="18"/>
<text text-anchor="middle" x="1689.6084" y="-41.3" font-family="Times,serif" font-size="14.00" fill="#000000">estre1</text>
</g>
<!-- 13&#45;&gt;14 -->
<g id="edge15" class="edge">
<title>13&#45;&gt;14</title>
<path fill="none" stroke="#000000" d="M1578.9954,-45C1598.5032,-45 1625.1481,-45 1647.3986,-45"/>
<polygon fill="#000000" stroke="#000000" points="1647.5937,-48.5001 1657.5936,-45 1647.5936,-41.5001 1647.5937,-48.5001"/>
<text text-anchor="middle" x="1618.2612" y="-48.8" font-family="Times,serif" font-size="14.00" fill="#000000">A, B, C</text>
</g>
<!-- 15 -->
<g id="node15" class="node">
<title>15</title>
<ellipse fill="none" stroke="#000000" cx="1827.4556" cy="-45" rx="27" ry="18"/>
<text text-anchor="middle" x="1827.4556" y="-41.3" font-family="Times,serif" font-size="14.00" fill="#000000">plus</text>
</g>
<!-- 14&#45;&gt;15 -->
<g id="edge16" class="edge">
<title>14&#45;&gt;15</title>
<path fill="none" stroke="#000000" d="M1721.5798,-45C1742.0847,-45 1768.7846,-45 1790.2416,-45"/>
<polygon fill="#000000" stroke="#000000" points="1790.3037,-48.5001 1800.3037,-45 1790.3037,-41.5001 1790.3037,-48.5001"/>
<text text-anchor="middle" x="1760.9556" y="-48.8" font-family="Times,serif" font-size="14.00" fill="#000000">A, B, C</text>
</g>
<!-- 16 -->
<g id="node16" class="node">
<title>16</title>
<ellipse fill="none" stroke="#000000" cx="1960.4556" cy="-45" rx="27" ry="18"/>
<text text-anchor="middle" x="1960.4556" y="-41.3" font-family="Times,serif" font-size="14.00" fill="#000000">bon</text>
</g>
<!-- 15&#45;&gt;16 -->
<g id="edge17" class="edge">
<title>15&#45;&gt;16</title>
<path fill="none" stroke="#000000" d="M1854.6911,-45C1874.4149,-45 1901.3184,-45 1923.055,-45"/>
<polygon fill="#000000" stroke="#000000" points="1923.2566,-48.5001 1933.2565,-45 1923.2565,-41.5001 1923.2566,-48.5001"/>
<text text-anchor="middle" x="1893.9556" y="-48.8" font-family="Times,serif" font-size="14.00" fill="#000000">A, B, C</text>
</g>
<!-- 17 -->
<g id="node17" class="node">
<title>17</title>
<ellipse fill="none" stroke="#000000" cx="2094.4031" cy="-45" rx="27.8951" ry="18"/>
<text text-anchor="middle" x="2094.4031" y="-41.3" font-family="Times,serif" font-size="14.00" fill="#000000">que1</text>
</g>
<!-- 16&#45;&gt;17 -->
<g id="edge18" class="edge">
<title>16&#45;&gt;17</title>
<path fill="none" stroke="#000000" d="M1987.5619,-45C2007.2704,-45 2034.2207,-45 2056.1226,-45"/>
<polygon fill="#000000" stroke="#000000" points="2056.4151,-48.5001 2066.4151,-45 2056.415,-41.5001 2056.4151,-48.5001"/>
<text text-anchor="middle" x="2026.9556" y="-48.8" font-family="Times,serif" font-size="14.00" fill="#000000">A, B, C</text>
</g>
<!-- 18 -->
<g id="node18" class="node">
<title>18</title>
<ellipse fill="none" stroke="#000000" cx="2228.3506" cy="-45" rx="27" ry="18"/>
<text text-anchor="middle" x="2228.3506" y="-41.3" font-family="Times,serif" font-size="14.00" fill="#000000">bel</text>
</g>
<!-- 17&#45;&gt;18 -->
<g id="edge19" class="edge">
<title>17&#45;&gt;18</title>
<path fill="none" stroke="#000000" d="M2122.4829,-45C2142.3927,-45 2169.3202,-45 2191.0352,-45"/>
<polygon fill="#000000" stroke="#000000" points="2191.223,-48.5001 2201.2229,-45 2191.2229,-41.5001 2191.223,-48.5001"/>
<text text-anchor="middle" x="2161.8506" y="-48.8" font-family="Times,serif" font-size="14.00" fill="#000000">A, B, C</text>
</g>
<!-- 18&#45;&gt;2 -->
<g id="edge20" class="edge">
<title>18&#45;&gt;2</title>
<path fill="none" stroke="#000000" d="M2255.5861,-45C2275.3099,-45 2302.2135,-45 2323.9501,-45"/>
<polygon fill="#000000" stroke="#000000" points="2324.1516,-48.5001 2334.1516,-45 2324.1515,-41.5001 2324.1516,-48.5001"/>
<text text-anchor="middle" x="2294.8506" y="-48.8" font-family="Times,serif" font-size="14.00" fill="#000000">A, B, C</text>
</g>
<!-- 19&#45;&gt;13 -->
<g id="edge21" class="edge">
<title>19&#45;&gt;13</title>
<path fill="none" stroke="#000000" d="M1476.2353,-25.3066C1488.7402,-28.5672 1503.6052,-32.4433 1516.8263,-35.8907"/>
<polygon fill="#000000" stroke="#000000" points="1515.9901,-39.2896 1526.5497,-38.4261 1517.7564,-32.5161 1515.9901,-39.2896"/>
<text text-anchor="middle" x="1501.7612" y="-36.8" font-family="Times,serif" font-size="14.00" fill="#000000">B</text>
</g>
</g>
</svg>
